#!OML:ASF F:\VICON\USERDATA\INSTALL\SteveWalk\SteveWalk.ASF
:FULLY-SPECIFIED
:DEGREES
273
root 0.214418 15.9269 15.4974 19.4628 -6.28958 -1.56828
lowerback -18.8254 2.44171 0.0631347
upperback -4.419 3.16838 0.270346
thorax 5.74697 1.5459 0.990271
lowerneck -5.49813 -1.32993 -0.832841
upperneck 10.1676 -1.80003 0.842823
head 4.34759 -0.87899 0.332456
rclavicle -2.37796e-014 -8.94531e-016
rhumerus -13.5446 8.58297 -80.5937
rradius 61.5728
rwrist -15.7905
rhand -18.331 -31.4857
rfingers 7.12502
rthumb 7.95086 -61.3161
lclavicle -2.37796e-014 -8.94531e-016
lhumerus -75.7554 31.2936 31.904
lradius 10.2538
lwrist -52.7409
lhand -12.847 -17.0332
lfingers 7.12502
lthumb 13.2407 12.5262
rfemur -0.499521 -4.58498 20.0102
rtibia 25.412
rfoot -14.4426 21.413
rtoes -13.2919
lfemur -50.9968 3.73433 -23.4209
ltibia 24.2166
lfoot -5.75036 0.824976
ltoes -14.4193
274
root 0.225281 15.9304 15.762 19.5371 -5.84827 -1.47486
lowerback -19.0686 2.32349 -0.0322207
upperback -4.56893 3.03995 0.127301
thorax 5.71964 1.48265 0.868347
lowerneck -5.22681 -1.41098 -0.879435
upperneck 10.0977 -1.94159 1.18013
head 4.27463 -0.935335 0.44806
rclavicle -1.30227e-014 -1.0958e-014
rhumerus -14.9256 8.16114 -80.882
rradius 62.1075
rwrist -15.9117
rhand -18.1335 -31.9903
rfingers 7.12502
rthumb 8.14153 -61.8135
lclavicle -1.30227e-014 -1.0958e-014
lhumerus -76.8112 31.5024 29.7306
lradius 10.2369
lwrist -54.3635
lhand -12.6533 -16.3679
lfingers 7.12502
lthumb 13.4273 13.1794
rfemur -0.739649 -4.67883 19.7648
rtibia 27.1068
rfoot -10.8816 22.2765
rtoes -9.15107
lfemur -51.4444 2.753 -22.8547
ltibia 25.8391
lfoot -4.74693 0.0349305
ltoes -9.90157
275
root 0.217947 15.9209 16.0064 19.5149 -5.67578 -1.05485
lowerback -18.8777 2.10114 -0.779972
upperback -4.87403 2.8995 -0.0184529
thorax 5.26371 1.41267 1.08661
lowerneck -4.79486 -1.47742 -1.04204
upperneck 10.1861 -2.06162 1.5735
head 4.22996 -0.983835 0.605046
rclavicle 1.1381e-014 -4.00054e-015
rhumerus -16.4348 7.86173 -81.236
rradius 62.3695
rwrist -15.92
rhand -17.8274 -32.0011
rfingers 7.12502
rthumb 8.43695 -61.8126
lclavicle 1.1381e-014 -4.00054e-015
lhumerus -78.5874 31.8301 26.343
lradius 10.0479
lwrist -56.9066
lhand -12.5897 -16.3458
lfingers 7.12502
lthumb 13.4887 13.1973
rfemur -1.38656 -4.17404 19.3106
rtibia 29.3655
rfoot -7.25213 22.3647
rtoes -6.86887
lfemur -51.6861 2.39319 -23.0452
ltibia 27.3605
lfoot -3.594 -1.14563
ltoes -6.5408
276
root 0.203679 15.9082 16.2499 19.4854 -5.74322 -0.403633
lowerback -18.7832 1.8822 -1.93404
upperback -5.04771 2.83904 -0.213293
thorax 4.98198 1.38016 1.50963
lowerneck -4.77742 -1.53648 -0.978905
upperneck 10.3274 -2.1726 1.79559
head 4.28197 -1.02526 0.662738
rclavicle -5.99538e-015 -7.95139e-016
rhumerus -17.6771 7.47407 -81.5417
rradius 62.3097
rwrist -15.6757
rhand -18.1536 -31.4107
rfingers 7.12502
rthumb 8.12214 -61.2346
lclavicle -5.99538e-015 -7.95139e-016
lhumerus -78.834 32.1598 25.386
lradius 9.6853
lwrist -57.6564
lhand -12.6354 -16.0917
lfingers 7.12502
lthumb 13.4446 13.4544
rfemur -2.43186 -3.70034 18.5558
rtibia 32.193
rfoot -3.93492 22.0955
rtoes -7.81677
lfemur -51.7171 2.32549 -23.7231
ltibia 28.8407
lfoot -2.6588 -1.83332
ltoes -6.27833
277
root 0.198099 15.8998 16.4914 19.4611 -5.62374 0.0536933
lowerback -19.0053 1.70131 -2.55935
upperback -4.94217 2.74475 -0.480733
thorax 5.19885 1.32487 1.56922
lowerneck -5.19764 -1.56237 -0.98407
upperneck 10.3904 -2.25513 2.24977
head 4.39928 -1.04151 0.810159
rclavicle -2.02263e-014 -4.17448e-015
rhumerus -18.6312 7.23449 -82.0371
rradius 62.4326
rwrist -16.3782
rhand -19.2827 -31.7132
rfingers 7.12502
rthumb 7.03222 -61.5764
lclavicle -2.02263e-014 -4.17448e-015
lhumerus -78.8062 32.8776 24.4285
lradius 9.44596
lwrist -58.4015
lhand -12.6242 -15.3836
lfingers 7.12502
lthumb 13.4554 14.1618
rfemur -3.72785 -3.77013 17.926
rtibia 35.3463
rfoot -0.303352 21.9877
rtoes -8.98609
lfemur -51.6715 2.12979 -24.2022
ltibia 30.3382
lfoot -2.58592 -1.9549
ltoes -6.08784
278
root 0.192394 15.8958 16.7212 19.3543 -5.41518 0.259257
lowerback -18.7525 1.55835 -3.01586
upperback -4.99985 2.64219 -0.600553
thorax 4.9921 1.27647 1.66594
lowerneck -5.41357 -1.5792 -0.997511
upperneck 10.5171 -2.31189 2.55381
head 4.49633 -1.05281 0.911695
rclavicle 2.34877e-014 2.38542e-015
rhumerus -19.9087 7.01096 -82.4535
rradius 62.9092
rwrist -18.0336
rhand -20.154 -33.0943
rfingers 7.12502
rthumb 6.19118 -62.9838
lclavicle 2.34877e-014 2.38542e-015
lhumerus -78.9676 33.37 23.5346
lradius 9.45624
lwrist -58.9569
lhand -12.0836 -14.4104
lfingers 7.12502
lthumb 13.9765 15.0998
rfemur -5.17863 -3.77106 17.5942
rtibia 38.5643
rfoot 4.49808 21.488
rtoes -8.06828
lfemur -51.5894 2.09966 -24.5438
ltibia 31.8677
lfoot -3.19083 -2.42048
ltoes -6.94205
279
root 0.187848 15.9101 16.962 19.3239 -5.22912 0.431613
lowerback -18.5786 1.43109 -3.47895
upperback -5.11591 2.55653 -0.673624
thorax 4.76175 1.2383 1.82211
lowerneck -5.42515 -1.64742 -0.997528
upperneck 10.599 -2.43029 2.77372
head 4.53569 -1.09957 0.979928
rclavicle -1.69588e-015 2.98177e-015
rhumerus -21.2937 6.65857 -82.6851
rradius 63.299
rwrist -19.3628
rhand -20.3873 -34.2929
rfingers 7.12502
rthumb 5.96589 -64.1889
lclavicle -1.69588e-015 2.98177e-015
lhumerus -79.1709 33.6614 22.6679
lradius 9.58433
lwrist -59.3274
lhand -11.3602 -13.9306
lfingers 7.12502
lthumb 14.6735 15.5301
rfemur -6.83929 -3.62792 17.2836
rtibia 41.7298
rfoot 9.91147 21.0789
rtoes -5.52867
lfemur -51.4462 2.15591 -24.9787
ltibia 33.2536
lfoot -4.10048 -3.35889
ltoes -9.51181
280
root 0.184184 15.9255 17.2018 19.2093 -5.09 0.734782
lowerback -18.3993 1.25394 -4.06945
upperback -5.15912 2.42827 -0.754867
thorax 4.60451 1.17709 2.03446
lowerneck -5.50686 -1.74799 -0.943528
upperneck 10.6214 -2.58002 2.84666
head 4.56455 -1.16671 0.986108
rclavicle -1.27502e-014 9.93923e-015
rhumerus -22.7056 6.33254 -82.9523
rradius 63.424
rwrist -19.7475
rhand -20.0503 -34.2172
rfingers 7.12502
rthumb 6.29125 -64.1038
lclavicle -1.27502e-014 9.93923e-015
lhumerus -79.5149 33.9801 21.6901
lradius 9.71372
lwrist -59.3942
lhand -11.1189 -14.7163
lfingers 7.12502
lthumb 14.9059 14.7274
rfemur -8.41281 -3.45327 16.8132
rtibia 44.8828
rfoot 14.1269 21.1475
rtoes -4.48158
lfemur -51.0285 2.14133 -25.4969
ltibia 34.3901
lfoot -4.87772 -4.11328
ltoes -11.394
281
root 0.188485 15.942 17.44 18.8903 -5.07269 1.50028
lowerback -18.1562 1.03874 -4.99621
upperback -5.10555 2.31565 -0.978315
thorax 4.5089 1.11969 2.28939
lowerneck -5.54841 -1.82056 -0.953632
upperneck 10.5641 -2.68386 2.92154
head 4.55641 -1.2147 1.007
rclavicle 2.1183e-015 -5.96354e-015
rhumerus -23.9447 6.32935 -83.2483
rradius 62.9533
rwrist -19.7897
rhand -20.731 -33.7771
rfingers 7.12502
rthumb 5.63411 -63.6822
lclavicle 2.1183e-015 -5.96354e-015
lhumerus -79.8955 34.3773 20.6925
lradius 9.83865
lwrist -59.3666
lhand -11.0164 -15.7904
lfingers 7.12502
lthumb 15.0047 13.646
rfemur -9.73093 -3.38473 15.7505
rtibia 47.9948
rfoot 17.3539 21.3234
rtoes -5.13377
lfemur -50.2415 1.90406 -26.4071
ltibia 35.3047
lfoot -5.79731 -4.18399
ltoes -3.79483
